<svg width="17" height="17" viewBox="0 0 17 17" fill="none" xmlns="http://www.w3.org/2000/svg">
<g clip-path="url(#clip0)">
<path d="M8.20996 16.9867C12.5864 16.9867 16.21 13.3553 16.21 8.98666C16.21 4.61019 12.5786 0.986664 8.20212 0.986664C3.83349 0.986664 0.209961 4.61019 0.209961 8.98666C0.209961 13.3553 3.84133 16.9867 8.20996 16.9867ZM8.20996 15.6533C4.508 15.6533 1.55114 12.6886 1.55114 8.98666C1.55114 5.2847 4.50016 2.32 8.20212 2.32C11.9041 2.32 14.8688 5.2847 14.8766 8.98666C14.8845 12.6886 11.9119 15.6533 8.20996 15.6533ZM8.13937 6.19451C8.71192 6.19451 9.15898 5.7396 9.15898 5.1749C9.15898 4.60235 8.71192 4.14745 8.13937 4.14745C7.57467 4.14745 7.11976 4.60235 7.11976 5.1749C7.11976 5.7396 7.57467 6.19451 8.13937 6.19451ZM6.83741 13.3004H10.0296C10.3511 13.3004 10.6021 13.0729 10.6021 12.7514C10.6021 12.4455 10.3511 12.2023 10.0296 12.2023H9.05702V8.21019C9.05702 7.78666 8.84525 7.50431 8.44525 7.50431H6.97075C6.64918 7.50431 6.3982 7.74745 6.3982 8.05333C6.3982 8.3749 6.64918 8.60235 6.97075 8.60235H7.80996V12.2023H6.83741C6.51584 12.2023 6.26486 12.4455 6.26486 12.7514C6.26486 13.0729 6.51584 13.3004 6.83741 13.3004Z" fill="#BDBDBD"/>
</g>
<defs>
<clipPath id="clip0">
<rect width="16" height="16" fill="white" transform="translate(0.209961 0.986664)"/>
</clipPath>
</defs>
</svg>
